<?xml version="1.0" encoding="UTF-8"?>
<svg width="720px" height="720px" viewBox="0 0 720 720" version="1.1" xmlns="http://www.w3.org/2000/svg" xmlns:xlink="http://www.w3.org/1999/xlink">
    <g id="Profile-Picture" stroke="none" stroke-width="1" fill="none" fill-rule="evenodd">
        <circle id="Oval" fill="#F5212D" cx="360" cy="360" r="360"></circle>
        <g id="logo" transform="translate(41.000000, 72.000000)" fill="#FFFFFF" fill-rule="nonzero">
            <g id="Group" transform="translate(317.500000, 229.500000) scale(-1, 1) rotate(-180.000000) translate(-317.500000, -229.500000) ">
                <path d="M455.883262,142.415324 C576.108738,95.953587 582.675676,94.9435493 582.675676,126.759739 C582.675676,141.910305 580.14993,144.940418 561.964564,154.030758 C542.263751,163.626117 540.243155,166.151211 534.686515,194.432268 C520.037193,268.165025 473.563479,329.777328 407.894102,361.088499 L407.894102,361.088499 L406.65095,361.662349 C405.614687,362.138956 404.577919,362.611447 403.542541,363.079001 L402.300874,363.637643 C383.482723,372.072861 365.375705,378.764159 359.399792,378.764159 C353.338003,378.764159 347.276215,382.80431 345.255619,388.359518 C340.204128,405.53016 312.42093,439.366425 295.751011,449.466802 C275.039899,462.092274 258.87513,462.092274 251.803043,449.971821 C247.76185,441.891519 249.277298,434.821255 259.380279,416.135556 C277.060496,383.309329 275.545049,377.754122 248.772148,366.643706 C197.246945,345.432913 145.216592,288.870799 111.876754,218.673175 C88.6398972,168.676306 86.1141519,153.525739 99.7531764,148.980569 C106.825263,146.960494 117.433393,150.495626 133.598163,162.11106 C175.020386,190.392117 203.308733,198.977438 256.854533,198.977438 C311.410632,199.482457 307.369439,200.492495 455.883262,142.415324 Z M482.857868,178.546376 C477.781726,173.385947 459,182.158676 459,189.89932 C459,199.704135 478.796954,199.188092 482.857868,189.383277 C484.380711,184.738891 484.380711,180.094504 482.857868,178.546376 Z M312.42093,106.558983 C312.42093,93.9335115 330.101147,88.3783038 354.348302,92.9234737 C369.502773,95.953587 403.34776,123.224606 403.34776,132.314946 C403.34776,134.840041 392.73963,141.405286 380.110904,146.455475 C367.482177,152.010683 354.348302,156.555853 351.317407,156.050834 C341.719575,155.545815 312.42093,118.174418 312.42093,106.558983 Z M112.887052,20.2007552 C127.536375,-3.03011327 139.154803,-5.55520767 143.701144,13.1304909 C152.793827,48.4818124 134.103312,100.498757 105.309816,120.194493 C64.3927424,147.465513 9.33149508,120.194493 0.743961099,67.6725298 C-2.79208231,46.9667558 6.30060073,41.916567 27.5168612,53.0269823 C57.8258046,68.6825676 90.1553443,56.5621145 112.887052,20.2007552 Z M570.552098,0 C594.799253,0 632.685432,20.2007552 634.706029,34.3412838 C637.231774,49.996869 623.0876,53.5320012 607.42798,40.9065292 C589.747763,27.2710195 559.438819,27.2710195 534.686515,40.9065292 L534.686515,40.9065292 L515.490851,52.0169445 L497.810634,40.9065292 C475.584075,27.2710195 446.28543,27.2710195 424.058872,40.9065292 L424.058872,40.9065292 L406.883804,51.5119257 L387.688139,40.9065292 C363.946134,27.2710195 335.152637,27.2710195 312.926079,40.9065292 L312.926079,40.9065292 L295.751011,51.5119257 L276.555347,40.9065292 C252.813341,27.2710195 221.999248,27.2710195 204.82418,40.4015103 C189.669709,52.5219634 181.587324,53.0269823 178.05128,42.9266047 C172.99979,30.3011327 179.061579,22.2208307 202.298435,10.6053965 C229.576484,-2.5250944 253.823639,-3.03011327 278.070794,9.09033982 C295.245862,18.1806796 296.761309,18.1806796 312.926079,9.5953587 C335.152637,-2.5250944 366.471879,-2.5250944 388.193288,9.5953587 C405.368356,18.6856985 406.378655,18.6856985 423.553722,9.5953587 C445.275132,-2.5250944 476.594374,-2.5250944 498.820932,9.5953587 C514.985702,18.1806796 516.501149,18.1806796 533.676217,9.09033982 C543.779198,4.04015103 560.449117,0 570.552098,0 Z" id="Combined-Shape"></path>
            </g>
        </g>
    </g>
</svg>