<?xml version="1.0" encoding="iso-8859-1"?>
<!-- Uploaded to: SVG Repo, www.svgrepo.com, Generator: SVG Repo Mixer Tools -->
<!DOCTYPE svg PUBLIC "-//W3C//DTD SVG 1.1//EN" "http://www.w3.org/Graphics/SVG/1.1/DTD/svg11.dtd">
<svg fill="#000000" version="1.1" id="Capa_1" xmlns="http://www.w3.org/2000/svg" xmlns:xlink="http://www.w3.org/1999/xlink" 
	 width="800px" height="800px" viewBox="0 0 346.435 346.435"
	 xml:space="preserve">
<g>
	<g>
		<g>
			<path d="M191.514,126.182c0-11.64,7.65-21.86,18.561-25.277c-3.146-3.882-6.971-6.218-11.145-6.803
				c-0.889-0.252-1.567-0.343-2.281-0.343c-2.955,0-7.146,0.46-10.737,1.862c-3.614,1.42-6.548,3.747-9.463,3.747h-0.757
				l-0.541-0.556c-4.512-4.5-11.048-5.446-15.747-5.446c-3.861,0-6.671,0.64-7.035,0.742l-0.252,0.132
				c-6.074,0.829-11.337,5.317-14.805,12.61c-3.609,7.563-4.834,17.156-3.474,27.013c2.729,19.744,15.48,34.969,28.346,33.173
				c4.53-0.622,8.632-3.285,11.904-7.71l1.475-1.987l1.482,1.967c3.258,4.354,7.329,6.975,11.797,7.602
				c8.274,1.099,16.808-4.771,22.506-15.09C199.704,148.823,191.514,138.405,191.514,126.182z"/>
		</g>
		<g>
			<path d="M200.797,68.965c-3.477,0.609-10.238,2.387-15.065,7.206c-4.849,4.852-6.608,11.593-7.206,15.072
				c3.477-0.622,10.221-2.384,15.066-7.206C198.426,79.203,200.185,72.439,200.797,68.965z"/>
		</g>
		<g>
			<path d="M322.437,0H23.986C12.229,0,2.669,9.56,2.669,21.317v224.808c0,11.745,9.56,21.317,21.317,21.317h84.295
				c6.254,8.105,18.903,27.586,14.469,36.833c-1.79,3.729-6.659,5.62-14.505,5.62c-42.42,0-43.64,15.03-43.64,16.754v19.785H281.82
				v-25.868l-1.189-0.907c-0.528-0.402-13.162-9.752-44.375-9.752c-6.821,0-8.179-2.672-8.617-3.536
				c-3.909-7.626,6.647-27.353,14.754-38.923h80.044c11.764,0,21.329-9.566,21.329-21.312V21.317C343.76,9.56,334.2,0,322.437,0z
				 M222.204,309.127c2.324,4.558,7.05,6.857,14.052,6.857c23.694,0,35.849,5.705,39.487,7.771v16.598H70.694l-0.006-13.571
				c0.318-2.99,7.68-10.797,37.563-10.797c10.391,0,17.12-3.05,20.002-9.085c5.563-11.631-5.951-30.402-12.385-39.464h119.18
				C228.714,277.134,216.56,298.114,222.204,309.127z M163.162,245.08c0-5.536,4.501-10.04,10.052-10.04
				c5.54,0,10.043,4.498,10.043,10.04c0,5.548-4.504,10.052-10.043,10.052C167.663,255.12,163.162,250.628,163.162,245.08z
				 M325.487,222.321H20.948V22.137h304.54V222.321z"/>
		</g>
	</g>
</g>
</svg>