<svg viewBox="0 0 1024 1024" version="1.1" xmlns="http://www.w3.org/2000/svg" width="24" height="24"><path d="M512 0A602.496 602.496 0 0 0 85.077333 177.237333L157.397333 249.6A499.968 499.968 0 0 1 512 102.826667a500.053333 500.053333 0 0 1 354.602667 146.773333l72.362666-72.362667A602.538667 602.538667 0 0 0 512 0z m0 184.32a418.645333 418.645333 0 0 0-296.405333 123.434667l72.32 72.32A316.330667 316.330667 0 0 1 512 287.146667c87.168 0 166.613333 35.498667 224.085333 92.928l72.32-72.32A418.730667 418.730667 0 0 0 512 184.32zM182.229333 344.576a416.256 416.256 0 0 0-90.026666 259.584C92.16 835.413333 280.746667 1024 512 1024c231.168 0 419.84-188.586667 419.84-419.84a420.522667 420.522667 0 0 0-90.069333-259.584L768.64 417.706667a315.690667 315.690667 0 0 1 61.013333 186.496c0 175.146667-142.506667 317.738667-317.696 317.738666-175.146667 0-317.738667-142.549333-317.738666-317.738666 0-69.461333 22.656-134.016 61.013333-186.453334L182.229333 344.533333zM512 368.768a237.269333 237.269333 0 0 0-166.656 68.821333l72.32 72.32a133.546667 133.546667 0 0 1 188.672 0l72.32-72.32A234.709333 234.709333 0 0 0 512 368.768z m0 165.888a69.504 69.504 0 1 0 0 139.008 69.504 69.504 0 0 0 0-139.008z" fill="currentColor"></path></svg>