<?xml version="1.0" encoding="iso-8859-1"?>
<!-- Uploaded to: SVG Repo, www.svgrepo.com, Generator: SVG Repo Mixer Tools -->
<svg version="1.1" id="Layer_1" xmlns="http://www.w3.org/2000/svg" xmlns:xlink="http://www.w3.org/1999/xlink" 
	 viewBox="0 0 320 320" xml:space="preserve">
<g id="XMLID_351_">
	<path id="XMLID_491_" style="fill:#CCF7F9;" d="M275.775,137.11C278.491,130.266,280,122.812,280,115c0-33.137-26.863-60-60-60
		c-12.183,0-23.511,3.642-32.975,9.88C171.991,40.932,145.363,25,115,25c-46.944,0-85,38.056-85,85
		c0,10.644,1.974,20.822,5.546,30.212C14.602,149.574,0,170.575,0,195c0,33.137,26.863,60,60,60h200c33.137,0,60-26.863,60-60
		C320,167.324,301.257,144.039,275.775,137.11z"/>
	<path id="XMLID_504_" style="fill:#00D7DF;" d="M275.775,137.11C278.491,130.266,280,122.812,280,115c0-33.137-26.863-60-60-60
		c-12.183,0-23.511,3.642-32.975,9.88C180.177,53.972,170.916,44.736,160,37.903V255h100c33.137,0,60-26.863,60-60
		C320,167.324,301.257,144.039,275.775,137.11z"/>
	<g id="XMLID_7_">
		<path id="XMLID_36_" style="fill:#FFDA44;" d="M132.341,233.333v-37.618c0-15.275,12.383-27.66,27.659-27.66
			s27.66,12.384,27.66,27.66v37.618H220V195c0-33.137-26.863-60-60-60s-60,26.863-60,60v38.333L132.341,233.333L132.341,233.333z"/>
		<path id="XMLID_35_" style="fill:#FF9811;" d="M160,135c0,10.083,0,24.333,0,33.056c15.276,0,27.66,12.384,27.66,27.66v37.618H220
			V195C220,161.863,193.137,135,160,135z"/>
		<rect id="XMLID_509_" x="100" y="215" style="fill:#FF9811;" width="120" height="80"/>
		<rect id="XMLID_510_" x="160" y="215" style="fill:#FF5023;" width="60" height="80"/>
		<circle id="XMLID_511_" style="fill:#802812;" cx="160" cy="255" r="15"/>
	</g>
</g>
</svg>