<?xml version="1.0" encoding="utf-8"?>
<!-- Uploaded to: SVG Repo, www.svgrepo.com, Generator: SVG Repo Mixer Tools -->
<svg xmlns="http://www.w3.org/2000/svg" xmlns:xlink="http://www.w3.org/1999/xlink" version="1.1" id="Capa_1"  viewBox="-275 367 60 60" xml:space="preserve" width="512" height="512">
<style type="text/css">
	.st0{fill:#FFFFFF;fill-opacity:0;}
	.st1{fill:#50DD8E;}
	.st2{fill:#80D6FA;}
	.st3{fill:#FF7474;}
	.st4{fill:#51565F;}
</style>
<title>location-globe</title>
<desc>Created with Sketch.</desc>
<g id="Travel">
	
	<g id="location-globe">
		<g id="fill" transform="translate(5.000000, 1.000000)">
			<path id="Combined-Shape" class="st1" d="M-250,425c-2.9,0-6-0.7-6-0.7c-10.9-2.7-19-12.5-19-24.3c0-1,0-1.9,0.2-2.9     c3.2-0.1,7,0.5,5.9,1.6c-1.7,1.7-0.9,8.6,2.6,6c3.5-2.6,5.2-6,4.3-8.6c-0.9-2.6,6-3.4,6,0.9s-1.7,3.4-2.6,6     c-0.9,2.6,0.9,2.6,1.7,3.5c0.9,0.9,3.4,2.6,0.9,8.6C-258,419.6-253.3,422.9-250,425z M-232.8,401.7c1.7,1.7-1.7,2.6-2.6,5.2     c-0.9,2.6-4.3,2.6-5.2,1.7c-0.9-0.9-2.6-1.7-4.3-2.6c-1.7-0.9,0-2.6,1.7-1.7c1.7,0.9,2.4-2.6,4.3-2.6     C-237.9,401.7-234.5,400-232.8,401.7z M-240.5,376.9c7.1,2.9,12.6,9.1,14.7,16.6c-3.2,1.4-8.3,2-9.5,1.4     c-1.7-0.9-1.7-5.2-4.8-5.3c-1.2,0-2.6,5.2-4.3,6c-1.7,0.9-2.6-2.6-4.3-5.2c-1.7-2.6,2.6-5.2,4.3-5.2c1.7,0,1.7-4.3,1.7-5.2     c0-0.9-1.7-1.9-1.2-4.3C-242,376.3-240.5,376.9-240.5,376.9z M-248.9,415.7c0.9,0.9,1.7,2.6,0.9,3.4c-0.9,0.9-2.6,0.9-3.4,0     C-252.7,417.9-249.7,414.8-248.9,415.7z"/>
			<path id="Fill-3" class="st2" d="M-248,419.1c0.9-0.9,0-2.6-0.9-3.4c-0.9-0.9-3.8,2.2-2.6,3.4C-250.6,420-248.9,420-248,419.1     L-248,419.1z M-235.4,406.9c0.9-2.6,4.3-3.5,2.6-5.2c-1.7-1.7-5.2,0-6,0c-1.9,0-2.6,3.4-4.3,2.6c-1.7-0.9-3.4,0.9-1.7,1.7     c1.7,0.9,3.4,1.7,4.3,2.6C-239.7,409.5-236.2,409.5-235.4,406.9L-235.4,406.9z M-225.2,396.5c0.2,1.1,0.2,2.3,0.2,3.5     c0,13.8-11.2,25-25,25c-3.3-2.1-8-5.4-6-9.9c2.6-6,0-7.8-0.9-8.6c-0.9-0.9-2.6-0.9-1.7-3.5c0.9-2.6,2.6-1.7,2.6-6     c0-4.3-6.9-3.4-6-0.9c0.9,2.6-0.9,6-4.3,8.6c-3.4,2.6-4.3-4.3-2.6-6c1.2-1.2-2.6-1.8-5.9-1.6l0.6-3.1c0.7-3.3,3.3-8.2,5.5-10.4     c0,0,1.3-1.4,2.8-2.5l0,0l3.9,4.9l4-5c0.8-0.9,2.4-3.6,2.9-5.8l0.2,0c1.7-0.3,4.6-0.2,5-0.2c2.1,0,4.2,0.3,6.1,0.8     c-0.5,2.4,1.2,3.4,1.2,4.3c0,0.9,0,5.2-1.7,5.2s-6,2.6-4.3,5.2c1.7,2.6,2.6,6,4.3,5.2c1.7-0.9,3.1-6.1,4.3-6c3,0.1,3,4.5,4.8,5.3     c1.2,0.6,6.3,0,9.5-1.4L-225.2,396.5z"/>
			<path id="Fill-7" class="st3" d="M-261,374c0-0.5-0.5-1-1-1s-1,0.5-1,1s0.5,1,1,1S-261,374.5-261,374 M-255,374     c0,0.4-0.1,0.8-0.1,1.2c-0.5,2.2-2,4.9-2.9,5.8l-4,5l-3.9-4.9l-0.1-0.1c-1-1.3-3-4.5-3-7c0-3.9,3.1-7,7-7S-255,370.1-255,374"/>
		</g>
		<path class="st4" d="M-245,426.5c-0.1,0-0.2,0-0.3-0.1c-2.5-1.6-8.5-5.3-6.2-10.5c2.3-5.3,0.4-6.9-0.5-7.8    c-0.1-0.1-0.2-0.2-0.2-0.2c-0.2-0.2-0.4-0.3-0.7-0.5c-0.8-0.5-2-1.2-1.2-3.5c0.4-1.1,0.9-1.6,1.3-2.1c0.7-0.7,1.2-1.3,1.2-3.7    c0-1.3-0.8-1.9-1.4-2.2c-1.2-0.5-2.8-0.3-3.4,0.3c-0.4,0.3-0.3,0.7-0.3,0.9c0.9,2.8-0.9,6.5-4.5,9.2c-1.7,1.3-2.8,0.4-3.2-0.1    c-1.3-1.6-1.4-5.4,0-6.7c0.1-0.1,0.1-0.1,0.1-0.1c-0.2-0.3-2.4-0.8-5.1-0.7c-0.1,0.8-0.1,1.6-0.1,2.4c0,11.3,7.6,21.1,18.6,23.8    c0.3,0.1,0.4,0.3,0.4,0.6c-0.1,0.3-0.3,0.4-0.6,0.4c-11.4-2.8-19.4-13-19.4-24.8c0-1.1,0.1-2,0.2-3c0,0,0-0.1,0-0.1    c0-0.1,0.1-0.1,0.1-0.2c0.1-0.1,0.1-0.1,0.2-0.1c0,0,0.1,0,0.1,0c0.3,0,5.8-0.2,6.5,1.3c0.1,0.2,0.2,0.7-0.3,1.1    c-1,1-0.9,4.2,0.1,5.4c0.3,0.3,0.8,0.7,1.9-0.1c3.3-2.4,4.9-5.7,4.1-8.1c-0.2-0.7-0.1-1.4,0.5-1.9c1-0.9,3-1.1,4.5-0.5    c1.3,0.6,2,1.7,2,3.1c0,2.9-0.8,3.7-1.5,4.4c-0.4,0.4-0.8,0.9-1.1,1.8c-0.5,1.6,0,1.9,0.8,2.3c0.3,0.2,0.6,0.4,0.8,0.6    c0.1,0.1,0.1,0.1,0.2,0.2c1.1,1,3.3,3.1,0.8,9c-1.6,3.8,1.9,6.8,5.7,9.2c13.4-0.1,24.4-11,24.4-24.5c0-1.1-0.1-2.3-0.2-3.4    c0-0.3,0.2-0.5,0.4-0.6c0.3,0,0.5,0.2,0.6,0.4c0.2,1.2,0.2,2.4,0.2,3.5C-219.5,415.1-230.9,426.5-245,426.5z M-244.7,421.3    c-0.8,0-1.5-0.3-2.1-0.8c-0.4-0.4-0.5-1-0.4-1.7c0.3-1.2,1.5-2.5,2.5-2.7c0.6-0.2,1,0.1,1.1,0.2c1,1,2,3,0.9,4.2l0,0    C-243.2,421-243.9,421.3-244.7,421.3z M-244.3,417c-0.2,0-1,0.4-1.5,1.3c-0.3,0.5-0.6,1.2-0.3,1.5c0.7,0.7,2.1,0.7,2.7,0    C-242.8,419.2-243.5,417.8-244.3,417C-244.2,417-244.2,417-244.3,417z M-233.8,410.6c-0.9,0-1.7-0.2-2.1-0.7    c-0.8-0.8-2.5-1.7-4.2-2.5c-1.1-0.5-1.1-1.4-0.9-1.9c0.4-0.9,1.7-1.3,3-0.7c0.5,0.2,0.8,0,1.6-1c0.6-0.8,1.4-1.7,2.5-1.7    c0.1,0,0.5-0.1,0.9-0.2c1.5-0.4,4-1.1,5.5,0.4c0.4,0.4,0.6,0.8,0.6,1.3c0,0.8-0.6,1.4-1.3,2.1c-0.7,0.6-1.4,1.4-1.7,2.3    c-0.4,1.3-1.4,2.1-2.8,2.5C-233,410.6-233.4,410.6-233.8,410.6z M-239.1,405.6c-0.5,0-0.8,0.2-0.9,0.4c-0.1,0.2,0.2,0.4,0.4,0.6    c1.7,0.9,3.5,1.8,4.4,2.7c0.3,0.3,1.2,0.5,2.3,0.3c0.6-0.1,1.7-0.6,2.1-1.8c0.4-1.2,1.3-2.1,2-2.7c0.5-0.5,1-1,1-1.3    c0-0.2-0.1-0.4-0.3-0.6c-1.1-1.1-3.1-0.5-4.5-0.1c-0.5,0.2-0.9,0.3-1.2,0.3c-0.7,0-1.2,0.6-1.7,1.3c-0.7,0.8-1.5,1.9-2.8,1.2    C-238.6,405.6-238.8,405.6-239.1,405.6z M-240,397.2c-1.2,0-2-1.6-2.8-3.2c-0.4-0.8-0.8-1.6-1.3-2.4c-0.6-0.9-0.6-1.9-0.1-2.9    c1-1.8,3.6-3.1,4.8-3.1c0.6,0,1.2-1.2,1.2-4.7c0-0.1-0.2-0.4-0.4-0.7c-0.4-0.7-1.1-1.7-0.9-3.2c-2.1-0.5-4.4-0.7-6.6-0.6    c-0.3,0-0.5-0.2-0.5-0.5c0-0.3,0.2-0.5,0.5-0.5c2.4-0.1,4.9,0.2,7.3,0.8c0.3,0.1,0.4,0.3,0.4,0.6c-0.3,1.4,0.2,2.2,0.7,2.9    c0.3,0.4,0.5,0.8,0.5,1.2c0,3.8-0.7,5.7-2.2,5.7c-1,0-3.2,1.1-4,2.5c-0.4,0.7-0.3,1.3,0.1,1.9c0.5,0.8,1,1.7,1.4,2.4    c1,2,1.6,2.9,2.3,2.6c0.7-0.4,1.5-1.9,2.1-3.2c0.9-1.7,1.4-2.9,2.4-2.9c2.1,0.1,3,1.9,3.7,3.4c0.4,0.9,0.8,1.7,1.3,2    c0.9,0.5,5.4,0,8.7-1.2c-2.1-7.1-7.4-13-14.3-15.8c-0.3-0.1-0.4-0.4-0.3-0.7c0.1-0.3,0.4-0.4,0.7-0.3c7.3,3,12.9,9.3,15,16.9    c0,0,0,0.1,0,0.1c0,0.1,0,0.1,0,0.2s-0.1,0.1-0.1,0.2c0,0-0.1,0.1-0.1,0.1c-3.2,1.4-8.5,2.1-9.9,1.4c-0.8-0.4-1.3-1.4-1.8-2.4    c-0.7-1.4-1.3-2.7-2.8-2.8c-0.3,0.1-1,1.5-1.5,2.4c-0.8,1.5-1.6,3.1-2.6,3.6C-239.5,397.1-239.7,397.2-240,397.2z M-269.3,395.5    c0,0-0.1,0-0.1,0c-0.3-0.1-0.4-0.3-0.4-0.6c0.8-3.5,3.4-8.4,5.6-10.6c0.2-0.2,0.5-0.2,0.7,0c0.2,0.2,0.2,0.5,0,0.7    c-2.1,2-4.6,6.9-5.3,10.1C-268.8,395.3-269,395.5-269.3,395.5z M-257,387.5c-0.2,0-0.3-0.1-0.4-0.2l-4-5c-1.2-1.6-3.1-4.8-3.1-7.3    c0-4.1,3.4-7.5,7.5-7.5s7.5,3.4,7.5,7.5c0,2.7-2.2,6.3-3.1,7.3l-4,5C-256.7,387.4-256.8,387.5-257,387.5z M-257,368.5    c-3.6,0-6.5,2.9-6.5,6.5c0,2.2,1.9,5.4,2.9,6.7l3.6,4.5l3.6-4.5c1-1.2,2.9-4.5,2.9-6.7C-250.5,371.4-253.4,368.5-257,368.5z     M-257,376.5c-0.8,0-1.5-0.7-1.5-1.5s0.7-1.5,1.5-1.5s1.5,0.7,1.5,1.5S-256.2,376.5-257,376.5z M-257,374.5    c-0.3,0-0.5,0.2-0.5,0.5s0.2,0.5,0.5,0.5s0.5-0.2,0.5-0.5S-256.7,374.5-257,374.5z"/>
	</g>
</g>
</svg>