<?xml version="1.0" encoding="utf-8"?>
<!-- Uploaded to: SVG Repo, www.svgrepo.com, Generator: SVG Repo Mixer Tools -->
<svg width="800px" height="800px" viewBox="0 0 1024 1024" class="icon"  version="1.1" xmlns="http://www.w3.org/2000/svg"><path d="M256 320H192c0 128.021333 106.666667 362.666667 106.666667 362.666667 21.333333 0 64-106.666667 64-106.666667-42.666667-64-106.666667-213.333333-106.666667-213.333333v-42.666667z" fill="#00838F" /><path d="M256 341.333333a21.333333 21.333333 0 0 1-21.333333 21.333334H170.666667a21.333333 21.333333 0 0 1-21.333334-21.333334v-21.333333a21.333333 21.333333 0 0 1 21.333334-21.333333h64a21.333333 21.333333 0 0 1 21.333333 21.333333v21.333333zM618.666667 533.376s0 85.312 21.333333 127.978667H384s21.333333-42.645333 21.333333-127.978667h213.333334z" fill="#00838F" /><path d="M405.333333 618.666667l64 21.333333h149.333334s106.666667 0 152 202.666667c0 0 18.666667 74.666667 18.666666 117.333333H362.666667l-21.333334-65.237333L405.333333 618.666667z" fill="#00ACC1" /><path d="M128.490667 202.282667A59.477333 59.477333 0 0 0 177.898667 256h48.085333c11.456-7.936 70.122667-55.445333-12.650667-149.333333 24 71.936-13.994667 73.664-13.312 52.010666C200.021333 110.677333 194.688 88 170.666667 64c0 61.866667-39.744 64.128-42.410667 130.837333-0.064 0.832-0.256 1.728-0.256 2.538667 0 0.405333 0.106667 0.768 0.106667 1.173333 0 1.109333-0.106667 2.069333-0.106667 3.221334l0.490667 0.512z" fill="#FFC107" /><path d="M299.946667 810.432c2.837333 25.962667 11.968 69.973333 41.386666 84.330667 42.666667 20.821333 64-228.970667 64-270.613334a12.224 12.224 0 0 0-0.448-3.498666c-4.565333 19.669333-45.354667 187.349333-104.938666 189.781333zM640 960h128c0-0.213333 1.045333-59.882667 1.578667-121.578667-7.872-33.962667-17.450667-62.08-27.989334-85.397333L682.666667 862.464s-2.666667-48-28.010667-90.026667c14.912 62.741333-10.709333 143.381333-14.250667 154.026667L640 960zM832 960l64-128-21.333333-21.333333-75.477334 149.333333zM512 383.978667c8.277333 0 16 0.704 23.338667 1.834666h-0.021334L512 277.333333l-23.317333 108.224A174.464 174.464 0 0 1 512 383.978667zM427.541333 416.746667a81.621333 81.621333 0 0 1 37.909334-26.005334L389.930667 320l37.610666 96.746667c0-0.021333 0 0 0 0zM725.333333 512.042667l-106.688-21.098667L618.666667 490.666667c0 12.714667-7.744 32.896-22.933334 47.232L725.333333 512.042667zM604.522667 430.890667c7.04 12.522667 11.242667 27.285333 12.949333 43.690666l86.08-77.696-99.029333 34.005334c0.021333 0.021333 0 0.021333 0 0zM595.882667 418.645333l-0.106667-0.149333L634.069333 320l-76.266666 71.466667a87.04 87.04 0 0 1 38.08 27.178666zM418.325333 430.485333c-0.021333 0.021333-0.021333 0.021333 0 0l-97.877333-33.6 85.994667 77.610667c1.514667-17.045333 5.44-31.765333 11.882666-44.010667zM405.376 491.050667l-81.770667 16.085333c1.92 3.733333 3.818667 7.445333 5.738667 11.093333l99.52 20.032c-12.992-10.581333-23.338667-26.304-23.488-47.210666z" fill="#0097A7" /><path d="M469.333333 554.666667c-21.354667 0.021333-64-21.290667-64-64 0-70.698667 35.989333-106.688 106.666667-106.688S618.666667 426.666667 618.666667 490.666667c0 21.333333-21.333333 64.021333-64 64h-85.333334z" fill="#0097A7" /><path d="M447.978667 554.709333C405.333333 512.042667 426.666667 405.312 512 405.333333s106.666667 106.709333 64 149.333334l-128.021333 0.042666zM554.666667 584.661333h-85.333334v56.896S471.722667 682.666667 511.957333 682.666667 554.666667 641.557333 554.666667 641.557333v-56.896z" fill="#006064" /><path d="M277.333333 277.376a21.333333 21.333333 0 0 1-21.333333 21.333333H149.333333a21.333333 21.333333 0 0 1-21.333333-21.333333V256h149.333333v21.376zM362.666667 554.666667a39.957333 39.957333 0 0 0-15.68-4.245334c5.418667 9.408 10.709333 18.112 15.68 25.578667 0 0-42.666667 106.666667-64 106.666667 0 0-12.181333-26.816-28.288-67.2C258.282667 647.744 234.666667 714.922667 234.666667 746.666667c0 0 21.333333 64 64 64 64 0 106.666667-192 106.666666-192s0-42.666667-42.666666-64zM179.797333 362.666667L192 448.021333h21.333333L225.536 362.666667zM576 512c0-47.061333-28.693333-64-64-64s-64 16.938667-64 64v21.333333c0 47.04 28.693333 85.333333 64 85.333334s64-38.293333 64-85.333334v-21.333333z" fill="#00BCD4" /><path d="M512 383.978667c-70.677333 0-106.666667 35.989333-106.666667 106.688 0 27.328 17.450667 45.781333 35.626667 55.616-32.789333-46.762667-9.130667-140.970667 71.04-140.949334 81.344 0.021333 104.405333 96.853333 69.418667 142.826667C606.186667 535.466667 618.666667 506.922667 618.666667 490.666667c0-64-35.989333-106.688-106.666667-106.688z" fill="#00BCD4" /><path d="M874.666667 810.666667l-106.666667-42.666667-85.333333 155.541333V960h116.522666z" fill="#4DD0E1" /></svg>