<?xml version="1.0" ?>
<!-- Uploaded to: SVG Repo, www.svgrepo.com, Generator: SVG Repo Mixer Tools -->
<svg width="800px" height="800px" viewBox="0 0 512 512" id="Layer_1" version="1.1" xml:space="preserve" xmlns="http://www.w3.org/2000/svg" xmlns:xlink="http://www.w3.org/1999/xlink">
<g id="_x30_9_Shopping_Gift">
<g>
<g>
<g>
<g>
<path d="M379.396,497.406H26.952c-13.967,0-24.69-12.393-22.723-26.263l47.314-327.459       c1.671-11.311,11.311-19.673,22.821-19.673h257.717c11.412,0,21.148,8.362,22.723,19.673l47.314,327.459       C404.184,485.013,393.363,497.406,379.396,497.406z" style="fill:#7AD2FA;"/>
</g>
<g>
<path d="M105.14,123.995c-11.519,0-21.157,8.371-22.846,19.698L34.988,471.147       c-1.958,13.861,8.755,26.264,22.731,26.264H26.963c-13.976,0-24.689-12.402-22.731-26.264l47.306-327.455       c1.689-11.327,11.327-19.698,22.846-19.698H105.14z" style="fill:#A5E1FB;"/>
</g>
<g>
<path d="M301.232,123.995c11.519,0,21.157,8.371,22.846,19.698l47.306,327.455       c1.958,13.861-8.755,26.264-22.731,26.264h30.756c13.976,0,24.689-12.402,22.731-26.264l-47.306-327.455       c-1.689-11.327-11.327-19.698-22.846-19.698H301.232z" style="fill:#4BC3F7;"/>
</g>
</g>
<g>
<g>
<g>
<path d="M93.505,178.539c0-12.725,10.365-22.987,22.987-22.987c12.725,0,23.09,10.262,23.09,22.987        s-10.365,22.987-23.09,22.987C103.87,201.526,93.505,191.264,93.505,178.539z" style="fill:#4BC3F7;"/>
</g>
<g>
<path d="M266.785,178.539c0-12.725,10.365-22.987,22.987-22.987c12.725,0,23.09,10.262,23.09,22.987        s-10.365,22.987-23.09,22.987C277.149,201.527,266.785,191.264,266.785,178.539z" style="fill:#4BC3F7;"/>
</g>
</g>
<g>
<g>
<path d="M289.814,186.135c-5.302,0-9.599-4.297-9.599-9.599V109.89c0-20.65-8.017-40.002-22.57-54.495        c-14.523-14.583-33.853-22.6-54.458-22.6c-42.474,0-77.028,34.584-77.028,77.095v66.646c0,5.302-4.297,9.599-9.599,9.599        s-9.599-4.297-9.599-9.599V109.89c0-53.097,43.167-96.294,96.226-96.294c25.75,0,49.909,10.023,68.032,28.224        c18.171,18.093,28.194,42.275,28.194,68.069v66.646C299.414,181.838,295.117,186.135,289.814,186.135z" style="fill:#B5927C;"/>
</g>
</g>
<g>
<g>
<path d="M116.543,109.903v66.62c0,3.532,1.92,6.643,4.8,8.332c-1.421,0.806-3.034,1.267-4.8,1.267        c-5.298,0-9.599-4.301-9.599-9.599v-66.62c0-53.104,43.197-96.301,96.225-96.301c1.574,0,3.11,0.038,4.646,0.115        C157.053,16.329,116.543,58.451,116.543,109.903z" style="fill:#D3AA94;"/>
</g>
</g>
<g>
<g>
<path d="M299.414,109.903v66.62c0,5.298-4.301,9.599-9.599,9.599c-1.729,0-3.379-0.461-4.762-1.267        c2.88-1.689,4.8-4.8,4.8-8.332v-66.62c0-25.803-10.021-49.994-28.222-68.079c-16.972-17.048-39.281-26.955-63.241-28.107        c1.612-0.077,3.186-0.115,4.8-0.115c25.765,0,49.917,10.022,68.04,28.222C289.392,59.91,299.414,84.1,299.414,109.903z" style="fill:#9D6E50;"/>
</g>
</g>
</g>
</g>
<g>
<g>
<path d="M499.908,302.586v183.378c0,6.309-5.134,11.442-11.442,11.442H250.468      c-6.309,0-11.418-5.133-11.418-11.442V302.586H499.908z" style="fill:#FEDD8E;"/>
</g>
<g>
<path d="M271.676,497.394h-21.205c-6.308,0-11.418-5.133-11.418-11.442V302.597h21.205v183.356      C260.258,492.261,265.367,497.394,271.676,497.394z" style="fill:#FEE9B4;"/>
</g>
<g>
<path d="M499.908,302.597v183.356c0,6.309-5.134,11.442-11.442,11.442h-21.205      c6.309,0,11.442-5.133,11.442-11.442V302.597H499.908z" style="fill:#FDD367;"/>
</g>
<g>
<path d="M508,297.976v-36.518c0-2.546-2.064-4.61-4.61-4.61H235.568c-2.546,0-4.61,2.064-4.61,4.61      v36.518c0,2.546,2.064,4.61,4.61,4.61H503.39C505.936,302.586,508,300.522,508,297.976z" style="fill:#7BDE9E;"/>
</g>
<g>
<path d="M256.779,302.597h-21.204c-2.543,0-4.605-2.063-4.605-4.63v-36.508      c0-2.543,2.063-4.606,4.605-4.606h21.204c-2.542,0-4.605,2.063-4.605,4.606v36.508      C252.174,300.534,254.237,302.597,256.779,302.597z" style="fill:#A7EABF;"/>
</g>
<g>
<path d="M508,261.459v36.508c0,2.566-2.063,4.63-4.605,4.63h-21.229c2.543,0,4.605-2.063,4.605-4.63      v-36.508c0-2.543-2.063-4.606-4.605-4.606h21.229C505.937,256.853,508,258.916,508,261.459z" style="fill:#51D27F;"/>
</g>
<g>
<path d="M395.045,256.847v240.529c0,0.016-0.002,0.029-0.005,0.029h-51.127V256.847H395.045z" style="fill:#FC8A8A;"/>
</g>
<g>
<rect height="19.813" style="fill:#FCB0B0;" width="51.116" x="343.924" y="256.853"/>
</g>
<g>
<path d="M343.924,477.605h51.116v19.765c0,0.024,0,0.024,0,0.024h-51.116V477.605z" style="fill:#F96364;"/>
</g>
<g>
<path d="M395.04,255.151v1.703h-51.116v-1.703c0-14.104,11.442-25.546,25.546-25.546h0.025      C383.598,229.604,395.04,241.046,395.04,255.151z" style="fill:#F96364;"/>
</g>
<g>
<path d="M395.04,255.151v1.703h-13.985c-1.607-12.545-12.329-22.26-25.33-22.26h-0.023      c-0.48,0-0.936,0.024-1.415,0.024c4.246-3.166,9.499-5.013,15.183-5.013h0.025C383.598,229.604,395.04,241.046,395.04,255.151z" style="fill:#F74B53;"/>
</g>
<path d="M503.391,252.849h-50.099c2.094-3.174,3.569-6.736,4.126-10.613     c1.004-6.981-0.777-13.93-5.008-19.555c-4.238-5.684-10.422-9.352-17.391-10.324c-7.004-1-13.961,0.785-19.59,5.031     l-24.025,18.013c-5.158-5.713-12.502-9.389-20.713-9.728l-11.926-82.54c-1.832-13.18-13.305-23.121-26.684-23.121h-29.668V109.89     c0-26.594-10.324-51.524-29.067-70.188c-18.692-18.77-43.606-29.106-70.157-29.106c-54.715,0-99.227,44.543-99.227,99.294v10.121     H74.364c-13.539,0-24.801,9.711-26.778,23.102L0.269,470.58c-1.102,7.774,1.211,15.625,6.348,21.547     c5.121,5.895,12.531,9.277,20.336,9.277h223.514h8.522h84.924h51.129h93.423c8.516,0,15.442-6.926,15.442-15.442V306.535     c4.502-0.273,8.094-3.988,8.094-8.561v-36.516C512,256.712,508.137,252.849,503.391,252.849z M390.92,252.849h-42.873     c1.154-10.803,10.321-19.242,21.448-19.242C380.599,233.606,389.766,242.046,390.92,252.849z M109.961,109.89     c0-51.442,41.821-93.294,93.227-93.294c24.942,0,48.348,9.711,65.915,27.348c17.61,17.539,27.309,40.957,27.309,65.946v66.645     c0,3.641-2.961,6.602-6.598,6.602c-3.637,0-6.598-2.961-6.598-6.602V109.89c0-21.449-8.328-41.559-23.446-56.614     c-15.082-15.141-35.176-23.481-56.583-23.481c-44.129,0-80.028,35.93-80.028,80.094v66.645c0,3.641-2.961,6.602-6.602,6.602     c-3.637,0-6.598-2.961-6.598-6.602V109.89H109.961z M277.217,109.89v10.121H129.161V109.89c0-40.856,33.207-74.094,74.028-74.094     c19.801,0,38.383,7.711,52.34,21.723C269.514,71.449,277.217,90.046,277.217,109.89z M339.913,493.405h-81.744h-7.702     c-4.09,0-7.418-3.34-7.418-7.442V306.587h96.864L339.913,493.405L339.913,493.405z M339.913,298.587H235.568     c-0.336,0-0.609-0.273-0.609-0.613v-36.516c0-0.336,0.273-0.609,0.609-0.609h104.345V298.587z M340.05,252.66l-44.411-0.28     c-3.367-2.887-5.543-6.848-6.18-11.277c-0.695-4.863,0.547-9.703,3.516-13.648c2.922-3.949,7.219-6.496,12.109-7.176     c4.852-0.707,9.719,0.543,13.652,3.508l24.309,18.226C341.418,245.27,340.37,248.858,340.05,252.66z M323.541,217.391     c-5.641-4.254-12.617-6.039-19.578-5.035c-7.02,0.977-13.207,4.648-17.402,10.313c-4.234,5.637-6.02,12.586-5.02,19.567     c0.555,3.876,2.029,7.439,4.12,10.613h-50.093c-4.746,0-8.609,3.863-8.609,8.609v36.516c0,4.572,3.59,8.286,8.09,8.561v179.429     c0,2.712,0.763,5.225,1.993,7.442H26.953c-5.484,0-10.695-2.379-14.293-6.524c-3.617-4.168-5.246-9.699-4.473-15.168     L55.499,144.27c1.391-9.422,9.324-16.258,18.863-16.258h29.598v48.524c0,6.949,5.652,12.602,12.598,12.602     c6.949,0,12.602-5.652,12.602-12.602v-48.524h148.056v48.524c0,6.949,5.652,12.602,12.598,12.602     c6.945,0,12.598-5.652,12.598-12.602v-48.524h29.668c9.41,0,17.473,6.973,18.766,16.242l11.87,82.157     c-5.94,1.405-11.194,4.599-15.157,8.99L323.541,217.391z M391.046,493.405h-43.133V260.849h43.133V493.405z M395.919,242.01     l24.315-18.228c3.926-2.961,8.777-4.211,13.664-3.504c4.852,0.676,9.149,3.227,12.106,7.195     c2.953,3.926,4.195,8.766,3.496,13.625c-0.637,4.434-2.82,8.395-6.191,11.281l-44.392,0.28     C398.596,248.858,397.547,245.268,395.919,242.01z M495.906,485.964c0,4.102-3.34,7.442-7.441,7.442h-89.419V306.587h96.86     C495.906,306.587,495.906,485.964,495.906,485.964z M504,297.974c0,0.34-0.273,0.613-0.609,0.613H399.046v-37.739h104.345     c0.336,0,0.609,0.273,0.609,0.609C504,261.457,504,297.974,504,297.974z" style="fill:#333333;"/>
</g>
</g>
</g>
</svg>